<svg width="38" height="38" viewBox="0 0 38 38" fill="none" xmlns="http://www.w3.org/2000/svg">
<g clip-path="url(#clip0_206_725)">
<path d="M24.2969 20.5625C25.4688 20.5625 26.5 19.9219 27.0312 18.9531L32.625 8.8125C33.2031 7.78125 32.4531 6.5 31.2656 6.5H8.14062L6.67188 3.375H1.5625V6.5H4.6875L10.3125 18.3594L8.20312 22.1719C7.0625 24.2656 8.5625 26.8125 10.9375 26.8125H29.6875V23.6875H10.9375L12.6563 20.5625H24.2969ZM9.625 9.625H28.6094L24.2969 17.4375H13.3281L9.625 9.625ZM10.9375 28.375C9.21875 28.375 7.82813 29.7812 7.82813 31.5C7.82813 33.2188 9.21875 34.625 10.9375 34.625C12.6562 34.625 14.0625 33.2188 14.0625 31.5C14.0625 29.7812 12.6562 28.375 10.9375 28.375ZM26.5625 28.375C24.8438 28.375 23.4531 29.7812 23.4531 31.5C23.4531 33.2188 24.8438 34.625 26.5625 34.625C28.2812 34.625 29.6875 33.2188 29.6875 31.5C29.6875 29.7812 28.2812 28.375 26.5625 28.375Z" fill="white"/>
</g>
<defs>
<clipPath id="clip0_206_725">
<rect width="37.5" height="37.5" fill="white" transform="translate(0 0.25)"/>
</clipPath>
</defs>
</svg>
