<svg width="49" height="48" viewBox="0 0 49 48" fill="none" xmlns="http://www.w3.org/2000/svg">
<rect x="0.630127" width="48" height="48" rx="24" fill="#01370C"/>
<path d="M28.2869 12.5C28.6653 12.5299 29.0437 12.5599 29.4216 12.591C29.6564 12.6108 29.8901 12.6359 30.1301 12.6593V16.3179C30.0337 16.3179 29.9435 16.3179 29.8528 16.3179C29.1063 16.3304 28.3599 16.3083 27.6168 16.3658C26.8176 16.4257 26.3467 16.8593 26.2962 17.6935C26.2278 18.8242 26.2789 19.9626 26.2789 21.1227H29.8034C29.6392 22.5001 29.4784 23.8446 29.3153 25.2088H26.2606C26.2543 25.2909 26.2445 25.355 26.2445 25.419C26.2445 28.7117 26.2445 32.0055 26.2445 35.3006C26.2445 35.3671 26.2566 35.4335 26.2623 35.5H22.3003C22.3043 35.4329 22.3118 35.3659 22.3118 35.2994C22.3118 32.0147 22.3118 28.7299 22.3118 25.4448V25.2244H19.1301V21.1341H22.3129C22.3129 21.0269 22.3129 20.9406 22.3129 20.8544C22.3227 19.65 22.2917 18.4433 22.3537 17.2419C22.4266 15.8286 22.8923 14.5691 23.9615 13.6211C24.6752 12.9791 25.5239 12.6683 26.4455 12.5449C26.5149 12.5359 26.5821 12.515 26.6522 12.5H28.2869Z" fill="white"/>
</svg>
