<svg width="49" height="48" viewBox="0 0 49 48" fill="none" xmlns="http://www.w3.org/2000/svg">
<rect x="0.630127" width="48" height="48" rx="24" fill="#01370C"/>
<path d="M21.0382 12H28.2136C28.7739 12.0311 29.3341 12.0603 29.8944 12.0942C30.8732 12.1516 31.8345 12.3201 32.7338 12.725C34.9413 13.7179 36.1042 15.4862 36.4658 17.8313C36.5298 18.2456 36.5599 18.6651 36.607 19.0817V28.7429C36.5929 28.8503 36.5773 28.9576 36.5646 29.065C36.5025 29.5913 36.4757 30.1257 36.3697 30.6436C35.8933 32.9373 34.5976 34.5667 32.3929 35.425C31.3364 35.8364 30.2235 35.9485 29.103 35.9598C26.5635 35.9857 24.0235 36.0097 21.4836 35.996C20.236 35.9895 18.9823 35.9843 17.7549 35.6867C15.7677 35.2042 14.2917 34.0771 13.4141 32.2165C12.8741 31.0715 12.7079 29.8394 12.6957 28.5914C12.6684 25.9949 12.6397 23.3999 12.6604 20.8039C12.6636 19.7105 12.7422 18.6187 12.8958 17.5361C13.1425 15.8605 13.9518 14.4637 15.326 13.4326C16.503 12.5489 17.8684 12.1977 19.3095 12.0956C19.8852 12.0551 20.462 12.0315 21.0382 12ZM24.6587 33.892V33.8553C25.2919 33.8553 25.9256 33.8742 26.5578 33.8516C27.9152 33.8045 29.2828 33.8181 30.6269 33.6501C32.4734 33.4189 33.7257 32.3596 34.1796 30.5216C34.3627 29.7792 34.4263 28.9929 34.4395 28.2246C34.4809 25.8104 34.4928 23.3955 34.4752 20.98C34.4751 20.0044 34.4164 19.0296 34.2996 18.061C34.0543 16.1303 32.8505 14.8248 30.948 14.4448C30.127 14.281 29.2739 14.2316 28.4335 14.2179C26.3319 14.1826 24.2293 14.1892 22.1248 14.1963C20.9224 14.2 19.7167 14.1845 18.5251 14.394C16.706 14.7146 15.4579 15.8695 15.0859 17.6835C14.9254 18.4655 14.8727 19.2785 14.8557 20.0793C14.8148 22.0011 14.7992 23.9248 14.8209 25.8471C14.8359 27.2049 14.8717 28.5673 15.0017 29.9181C15.1288 31.2363 15.7512 32.3267 16.9084 33.0451C17.6909 33.5305 18.5703 33.7249 19.4766 33.7574C21.2039 33.8191 22.9308 33.8478 24.6587 33.892Z" fill="white"/>
<path d="M18.4771 24.0053C18.4823 20.5967 21.2595 17.8285 24.6587 17.8426C28.0752 17.8567 30.8346 20.6288 30.8134 24.0256C30.7922 27.4355 28.0409 30.1807 24.6459 30.1775C21.2411 30.1727 18.4719 27.4026 18.4771 24.0053ZM20.6503 24.0053C20.6494 24.796 20.8832 25.5692 21.3219 26.227C21.7606 26.8848 22.3845 27.3977 23.1148 27.7008C23.8451 28.0039 24.6489 28.0836 25.4245 27.9298C26.2001 27.7759 26.9126 27.3955 27.4719 26.8366C28.0312 26.2777 28.4121 25.5654 28.5665 24.7899C28.7209 24.0145 28.6418 23.2106 28.3393 22.4801C28.0367 21.7496 27.5242 21.1253 26.8667 20.6861C26.2092 20.2469 25.4362 20.0127 24.6455 20.013C24.1207 20.0116 23.6008 20.114 23.1157 20.3141C22.6306 20.5143 22.1898 20.8083 21.8185 21.1792C21.4473 21.5502 21.153 21.9908 20.9526 22.4757C20.7521 22.9607 20.6494 23.4805 20.6503 24.0053Z" fill="white"/>
<path d="M31.0883 16.1623C31.4652 16.1758 31.8216 16.337 32.0806 16.611C32.3396 16.8851 32.4805 17.25 32.4729 17.627C32.4652 18.004 32.3096 18.3629 32.0396 18.6261C31.7697 18.8894 31.407 19.036 31.0299 19.0342C30.8394 19.0333 30.651 18.9945 30.4756 18.92C30.3003 18.8456 30.1414 18.737 30.0084 18.6007C29.8754 18.4643 29.7709 18.3028 29.7009 18.1256C29.6309 17.9484 29.5968 17.7591 29.6007 17.5686C29.6045 17.3781 29.6463 17.1903 29.7234 17.0161C29.8006 16.8419 29.9116 16.6848 30.05 16.5539C30.1885 16.4231 30.3516 16.321 30.5298 16.2538C30.7081 16.1866 30.8979 16.1555 31.0883 16.1623Z" fill="white"/>
</svg>
