<svg width="124" height="21" viewBox="0 0 124 21" fill="none" xmlns="http://www.w3.org/2000/svg">
<path d="M10.5044 0.81665L12.6941 7.55576H19.78L14.0473 11.7208L16.237 18.4599L10.5044 14.2949L4.77177 18.4599L6.96143 11.7208L1.22881 7.55576H8.31472L10.5044 0.81665Z" fill="#F79E1B"/>
<path d="M36.252 0.81665L38.4416 7.55576H45.5275L39.7949 11.7208L41.9846 18.4599L36.252 14.2949L30.5193 18.4599L32.709 11.7208L26.9764 7.55576H34.0623L36.252 0.81665Z" fill="#F79E1B"/>
<path d="M62 0.81665L64.1897 7.55576H71.2756L65.543 11.7208L67.7326 18.4599L62 14.2949L56.2674 18.4599L58.457 11.7208L52.7244 7.55576H59.8103L62 0.81665Z" fill="#F79E1B"/>
<path d="M87.7476 0.81665L89.9372 7.55576H97.0231L91.2905 11.7208L93.4802 18.4599L87.7476 14.2949L82.0149 18.4599L84.2046 11.7208L78.472 7.55576H85.5579L87.7476 0.81665Z" fill="#F79E1B"/>
<path d="M113.495 0.81665L115.685 7.55576H122.771L117.038 11.7208L119.228 18.4599L113.495 14.2949L107.762 18.4599L109.952 11.7208L104.22 7.55576H111.305L113.495 0.81665Z" fill="#C4C4C4"/>
</svg>
