<svg width="49" height="48" viewBox="0 0 49 48" fill="none" xmlns="http://www.w3.org/2000/svg">
<rect x="0.630127" width="48" height="48" rx="24" fill="#01370C"/>
<g clip-path="url(#clip0_269_679)">
<path fill-rule="evenodd" clip-rule="evenodd" d="M15.8968 14.1638C17.9594 11.9652 20.9501 10.6665 24.6528 10.6665C30.7394 10.6665 34.7754 14.1745 36.0528 19.0358C36.1426 19.378 36.0928 19.7418 35.9144 20.0472C35.736 20.3526 35.4436 20.5747 35.1014 20.6645C34.7593 20.7543 34.3955 20.7046 34.0901 20.5261C33.7847 20.3477 33.5626 20.0553 33.4728 19.7132C32.5034 16.0292 29.5314 13.3332 24.6514 13.3332C21.6034 13.3332 19.3448 14.3852 17.8434 15.9865C16.3288 17.6025 15.4848 19.8838 15.4848 22.4998V25.4998C15.4848 28.1158 16.3288 30.3972 17.8434 32.0118C19.3448 33.6158 21.6034 34.6665 24.6514 34.6665C26.8581 34.6665 28.6088 34.1545 29.9528 33.3265C31.3061 32.4932 32.1128 31.3878 32.3394 30.1198C32.5994 28.6585 32.2794 27.6558 31.7288 26.9318C31.4263 26.5428 31.0591 26.2086 30.6434 25.9438C30.4634 26.9425 30.1421 27.8852 29.6568 28.6238C27.8674 31.3425 24.4461 31.5758 22.1901 30.6758C20.9688 30.1892 19.9221 28.8572 19.5968 27.4292C19.4009 26.6106 19.4667 25.7511 19.7848 24.9718C20.1381 24.1238 20.7928 23.4012 21.7248 22.8518C22.6474 22.3065 24.0181 22.0558 25.3768 22.0185C26.1954 21.9958 27.0834 22.0505 27.9768 22.1958C27.7901 21.3292 27.4741 20.6825 27.1181 20.3505C26.4728 19.7505 25.4034 19.3278 24.3314 19.3345C23.2954 19.3425 22.4168 19.7412 21.8914 20.5812C21.704 20.881 21.4052 21.0942 21.0606 21.1737C20.716 21.2532 20.354 21.1926 20.0541 21.0052C19.7542 20.8177 19.5411 20.5189 19.4616 20.1743C19.3821 19.8298 19.4427 19.4677 19.6301 19.1678C20.7461 17.3838 22.5848 16.6812 24.3141 16.6678C26.0074 16.6558 27.7514 17.2972 28.9354 18.3985C30.1328 19.5132 30.6474 21.3412 30.7808 23.0038C31.9461 23.5118 33.0474 24.2572 33.8541 25.3198C34.8954 26.6932 35.3434 28.4638 34.9648 30.5878C34.5781 32.7532 33.2114 34.4518 31.3514 35.5972C29.5274 36.7198 27.2768 37.3332 24.6514 37.3332C20.9501 37.3332 17.9581 36.0345 15.8981 33.8358C13.8501 31.6518 12.8181 28.6838 12.8181 25.4998V22.4998C12.8181 19.3158 13.8501 16.3478 15.8981 14.1638H15.8968ZM28.0968 24.9332C27.2272 24.745 26.3382 24.6617 25.4488 24.6852C24.2608 24.7172 23.4274 24.9425 23.0794 25.1478C22.5674 25.4505 22.3461 25.7585 22.2474 25.9972C22.1424 26.2648 22.1246 26.5588 22.1968 26.8372C22.3594 27.5518 22.8968 28.0878 23.1781 28.1985C24.6794 28.7985 26.5581 28.4812 27.4288 27.1585C27.7421 26.6812 27.9914 25.8785 28.0954 24.9332H28.0968Z" fill="#F8F8F8"/>
</g>
<defs>
<clipPath id="clip0_269_679">
<rect width="26" height="26" fill="white" transform="translate(11.6301 11)"/>
</clipPath>
</defs>
</svg>
