<svg width="49" height="48" viewBox="0 0 49 48" fill="none" xmlns="http://www.w3.org/2000/svg">
<rect x="0.630127" width="48" height="48" rx="24" fill="#01370C"/>
<path opacity="0.3" d="M33.2967 17.5H15.9634L24.63 22.9058L33.2967 17.5ZM15.9634 19.6667V30.5H33.2967V19.6667L24.63 25.0833L15.9634 19.6667Z" fill="#F8F8F8"/>
<path d="M33.2969 15.3333H15.9635C14.7719 15.3333 13.7969 16.3083 13.7969 17.4999V30.4999C13.7969 31.6916 14.7719 32.6666 15.9635 32.6666H33.2969C34.4885 32.6666 35.4635 31.6916 35.4635 30.4999V17.4999C35.4635 16.3083 34.4885 15.3333 33.2969 15.3333ZM33.2969 17.4999L24.6302 22.9058L15.9635 17.4999H33.2969ZM33.2969 30.4999H15.9635V19.6666L24.6302 25.0833L33.2969 19.6666V30.4999Z" fill="#F8F8F8"/>
</svg>
