<svg width="38" height="38" viewBox="0 0 38 38" fill="none" xmlns="http://www.w3.org/2000/svg">
<g clip-path="url(#clip0_206_728)">
<path d="M19.25 3.375C10.625 3.375 3.625 10.375 3.625 19C3.625 27.625 10.625 34.625 19.25 34.625C27.875 34.625 34.875 27.625 34.875 19C34.875 10.375 27.875 3.375 19.25 3.375ZM11.5469 28.8125C12.2188 27.4063 16.3125 26.0312 19.25 26.0312C22.1875 26.0312 26.2969 27.4063 26.9531 28.8125C24.8281 30.5 22.1562 31.5 19.25 31.5C16.3438 31.5 13.6719 30.5 11.5469 28.8125ZM29.1875 26.5469C26.9531 23.8281 21.5312 22.9062 19.25 22.9062C16.9688 22.9062 11.5469 23.8281 9.3125 26.5469C7.71875 24.4531 6.75 21.8438 6.75 19C6.75 12.1094 12.3594 6.5 19.25 6.5C26.1406 6.5 31.75 12.1094 31.75 19C31.75 21.8438 30.7812 24.4531 29.1875 26.5469ZM19.25 9.625C16.2188 9.625 13.7812 12.0625 13.7812 15.0938C13.7812 18.125 16.2188 20.5625 19.25 20.5625C22.2812 20.5625 24.7188 18.125 24.7188 15.0938C24.7188 12.0625 22.2812 9.625 19.25 9.625ZM19.25 17.4375C17.9531 17.4375 16.9062 16.3906 16.9062 15.0938C16.9062 13.7969 17.9531 12.75 19.25 12.75C20.5469 12.75 21.5938 13.7969 21.5938 15.0938C21.5938 16.3906 20.5469 17.4375 19.25 17.4375Z" fill="white"/>
</g>
<defs>
<clipPath id="clip0_206_728">
<rect width="37.5" height="37.5" fill="white" transform="translate(0.5 0.25)"/>
</clipPath>
</defs>
</svg>
